<svg xmlns="http://www.w3.org/2000/svg" version="1.1" xmlns:xlink="http://www.w3.org/1999/xlink" width="512" height="512"><svg width="512" height="512" viewBox="0 0 512 512" fill="none" xmlns="http://www.w3.org/2000/svg">
<path d="M42.6071 115.2L221.857 12.8C256 -4.26667 256 -4.26667 290.143 12.8L469.393 115.2C495 132.267 495 140.8 495 157.867V362.667C495 388.267 486.464 396.8 452.321 413.867L290.143 499.2C256 516.267 256 516.267 221.857 499.2L59.6786 413.867C25.5357 396.8 17 388.267 17 362.667V157.867C17 140.8 17 132.267 42.6071 115.2ZM256 29.8667L59.6786 140.8L256 234.667L452.321 140.8L256 29.8667ZM469.393 166.4L273.071 260.267V473.6L469.393 371.2V166.4ZM358.429 354.133L298.679 294.4C298.679 294.4 290.143 285.867 298.679 277.333C307.214 268.8 315.75 277.333 324.286 285.867L384.036 345.6C392.571 354.133 392.571 354.133 384.036 362.667L315.75 430.933C315.75 430.933 307.214 439.467 298.679 430.933C290.143 422.4 298.679 413.867 298.679 413.867L358.429 354.133ZM153.571 354.133L213.321 294.4C213.321 294.4 221.857 285.867 213.321 277.333C204.786 268.8 196.25 277.333 187.714 285.867L127.964 345.6C119.429 354.133 119.429 354.133 127.964 362.667L196.25 430.933C196.25 430.933 204.786 439.467 213.321 430.933C221.857 422.4 213.321 413.867 213.321 413.867L153.571 354.133Z" fill="#FF923E"></path>
</svg><style>@media (prefers-color-scheme: light) { :root { filter: none; } }
@media (prefers-color-scheme: dark) { :root { filter: none; } }
</style></svg>